<mxfile host="app.diagrams.net" modified="2024-09-23T12:32:23.962Z" agent="Mozilla/5.0 (Windows NT 10.0; Win64; x64) AppleWebKit/537.36 (KHTML, like Gecko) Chrome/129.0.0.0 Safari/537.36 Edg/129.0.0.0" etag="XbilXgdqgVrNJI7ey75g" version="22.1.15" type="device" pages="2">
  <diagram name="Страница — 1" id="p26AoqWJc6sBIQj74yIs">
    <mxGraphModel dx="1426" dy="801" grid="1" gridSize="10" guides="1" tooltips="1" connect="1" arrows="1" fold="1" page="1" pageScale="1" pageWidth="827" pageHeight="1169" math="0" shadow="0">
      <root>
        <mxCell id="0" />
        <mxCell id="1" parent="0" />
        <mxCell id="5gXdG1pFErPGXCqlOWgU-1" value="&lt;p style=&quot;font-size: 20px;&quot;&gt;&lt;font face=&quot;Times New Roman&quot;&gt;Управление бизнесом или организацией&amp;nbsp; &amp;nbsp; &amp;nbsp; &amp;nbsp; &amp;nbsp; &amp;nbsp; &amp;nbsp; &amp;nbsp; &amp;nbsp; &amp;nbsp; &amp;nbsp; &amp;nbsp; &amp;nbsp; &amp;nbsp; &amp;nbsp; &amp;nbsp; &amp;nbsp; &amp;nbsp; &amp;nbsp; &amp;nbsp; &amp;nbsp; &amp;nbsp; &amp;nbsp; &amp;nbsp; &amp;nbsp; &amp;nbsp; &amp;nbsp; &amp;nbsp; &amp;nbsp; &amp;nbsp; &amp;nbsp; &amp;nbsp; &amp;nbsp; &amp;nbsp; &amp;nbsp; &amp;nbsp; &amp;nbsp; &amp;nbsp; &amp;nbsp; &amp;nbsp; &amp;nbsp; &amp;nbsp; &amp;nbsp; &amp;nbsp; &amp;nbsp; &amp;nbsp; &amp;nbsp; &amp;nbsp; &amp;nbsp; &amp;nbsp; &amp;nbsp; &amp;nbsp; &amp;nbsp; &amp;nbsp; &amp;nbsp; &amp;nbsp; &amp;nbsp; &amp;nbsp; &amp;nbsp; &amp;nbsp; &amp;nbsp; &amp;nbsp; &amp;nbsp; &amp;nbsp; &amp;nbsp; &amp;nbsp; &amp;nbsp; &amp;nbsp; &amp;nbsp; &amp;nbsp; &amp;nbsp; &amp;nbsp; &amp;nbsp; &amp;nbsp; &amp;nbsp; &amp;nbsp; &amp;nbsp; &amp;nbsp; &amp;nbsp; &amp;nbsp; &amp;nbsp; &amp;nbsp; &amp;nbsp; &amp;nbsp; &amp;nbsp; &amp;nbsp; &amp;nbsp; &amp;nbsp; &amp;nbsp; &amp;nbsp; &amp;nbsp; &amp;nbsp; &amp;nbsp; &amp;nbsp; &amp;nbsp; &amp;nbsp; &amp;nbsp; &amp;nbsp; &amp;nbsp; &amp;nbsp; &amp;nbsp; &amp;nbsp; &amp;nbsp; &amp;nbsp; &amp;nbsp; &amp;nbsp; &amp;nbsp; &amp;nbsp; &amp;nbsp; &amp;nbsp; &amp;nbsp; &amp;nbsp; &amp;nbsp; &amp;nbsp; &amp;nbsp; &amp;nbsp; &amp;nbsp; &amp;nbsp; &amp;nbsp; &amp;nbsp; &amp;nbsp; &amp;nbsp; &amp;nbsp;&amp;nbsp;&lt;/font&gt;&lt;/p&gt;" style="text;html=1;align=center;verticalAlign=middle;resizable=0;points=[];autosize=1;strokeColor=none;fillColor=none;" parent="1" vertex="1">
          <mxGeometry x="110" y="50" width="1600" height="80" as="geometry" />
        </mxCell>
        <mxCell id="5gXdG1pFErPGXCqlOWgU-2" value="Менеджер" style="shape=umlActor;verticalLabelPosition=bottom;verticalAlign=top;html=1;outlineConnect=0;" parent="1" vertex="1">
          <mxGeometry x="120" y="240" width="40" height="90" as="geometry" />
        </mxCell>
        <mxCell id="5gXdG1pFErPGXCqlOWgU-7" value="" style="rounded=0;whiteSpace=wrap;html=1;rotation=90;" parent="1" vertex="1">
          <mxGeometry x="120" y="380" width="35" height="10" as="geometry" />
        </mxCell>
        <mxCell id="5gXdG1pFErPGXCqlOWgU-21" value="" style="endArrow=classic;html=1;rounded=0;exitX=1;exitY=0;exitDx=0;exitDy=0;" parent="1" source="5gXdG1pFErPGXCqlOWgU-7" edge="1">
          <mxGeometry width="50" height="50" relative="1" as="geometry">
            <mxPoint x="270" y="410" as="sourcePoint" />
            <mxPoint x="320" y="403" as="targetPoint" />
          </mxGeometry>
        </mxCell>
        <mxCell id="5gXdG1pFErPGXCqlOWgU-22" value="Получить список товаров" style="text;html=1;align=center;verticalAlign=middle;resizable=0;points=[];autosize=1;strokeColor=none;fillColor=none;" parent="1" vertex="1">
          <mxGeometry x="150" y="370" width="160" height="30" as="geometry" />
        </mxCell>
        <mxCell id="5gXdG1pFErPGXCqlOWgU-24" value="" style="endArrow=none;html=1;rounded=0;entryX=1;entryY=0.5;entryDx=0;entryDy=0;" parent="1" source="5gXdG1pFErPGXCqlOWgU-31" target="5gXdG1pFErPGXCqlOWgU-7" edge="1">
          <mxGeometry width="50" height="50" relative="1" as="geometry">
            <mxPoint x="138" y="620" as="sourcePoint" />
            <mxPoint x="120" y="500" as="targetPoint" />
          </mxGeometry>
        </mxCell>
        <mxCell id="5gXdG1pFErPGXCqlOWgU-26" value="" style="endArrow=none;html=1;rounded=0;" parent="1" source="5gXdG1pFErPGXCqlOWgU-28" target="5gXdG1pFErPGXCqlOWgU-27" edge="1">
          <mxGeometry width="50" height="50" relative="1" as="geometry">
            <mxPoint x="320" y="630" as="sourcePoint" />
            <mxPoint x="320" y="290" as="targetPoint" />
          </mxGeometry>
        </mxCell>
        <mxCell id="5gXdG1pFErPGXCqlOWgU-27" value="Списковая форма товаров на складе" style="rounded=0;whiteSpace=wrap;html=1;" parent="1" vertex="1">
          <mxGeometry x="260" y="255" width="120" height="60" as="geometry" />
        </mxCell>
        <mxCell id="5gXdG1pFErPGXCqlOWgU-29" value="" style="endArrow=none;html=1;rounded=0;" parent="1" target="5gXdG1pFErPGXCqlOWgU-28" edge="1">
          <mxGeometry width="50" height="50" relative="1" as="geometry">
            <mxPoint x="320" y="640" as="sourcePoint" />
            <mxPoint x="320" y="315" as="targetPoint" />
          </mxGeometry>
        </mxCell>
        <mxCell id="5gXdG1pFErPGXCqlOWgU-28" value="" style="rounded=0;whiteSpace=wrap;html=1;rotation=90;" parent="1" vertex="1">
          <mxGeometry x="302.5" y="420" width="35" height="10" as="geometry" />
        </mxCell>
        <mxCell id="5gXdG1pFErPGXCqlOWgU-30" value="" style="endArrow=none;dashed=1;html=1;dashPattern=1 3;strokeWidth=2;rounded=0;entryX=1;entryY=0.25;entryDx=0;entryDy=0;" parent="1" target="5gXdG1pFErPGXCqlOWgU-28" edge="1">
          <mxGeometry width="50" height="50" relative="1" as="geometry">
            <mxPoint x="140" y="440" as="sourcePoint" />
            <mxPoint x="210" y="460" as="targetPoint" />
          </mxGeometry>
        </mxCell>
        <mxCell id="5gXdG1pFErPGXCqlOWgU-32" value="" style="endArrow=none;html=1;rounded=0;entryX=1;entryY=0.5;entryDx=0;entryDy=0;" parent="1" source="5gXdG1pFErPGXCqlOWgU-40" target="5gXdG1pFErPGXCqlOWgU-31" edge="1">
          <mxGeometry width="50" height="50" relative="1" as="geometry">
            <mxPoint x="138" y="620" as="sourcePoint" />
            <mxPoint x="138" y="403" as="targetPoint" />
          </mxGeometry>
        </mxCell>
        <mxCell id="5gXdG1pFErPGXCqlOWgU-31" value="" style="rounded=0;whiteSpace=wrap;html=1;rotation=90;" parent="1" vertex="1">
          <mxGeometry x="120" y="450" width="35" height="10" as="geometry" />
        </mxCell>
        <mxCell id="5gXdG1pFErPGXCqlOWgU-33" value="" style="endArrow=classic;html=1;rounded=0;exitX=1;exitY=0;exitDx=0;exitDy=0;" parent="1" source="5gXdG1pFErPGXCqlOWgU-31" edge="1">
          <mxGeometry width="50" height="50" relative="1" as="geometry">
            <mxPoint x="170" y="510" as="sourcePoint" />
            <mxPoint x="460" y="470" as="targetPoint" />
          </mxGeometry>
        </mxCell>
        <mxCell id="5gXdG1pFErPGXCqlOWgU-35" value="" style="endArrow=none;dashed=1;html=1;dashPattern=1 3;strokeWidth=2;rounded=0;entryX=1;entryY=0.25;entryDx=0;entryDy=0;" parent="1" edge="1">
          <mxGeometry width="50" height="50" relative="1" as="geometry">
            <mxPoint x="138.5" y="480" as="sourcePoint" />
            <mxPoint x="321.5" y="483" as="targetPoint" />
          </mxGeometry>
        </mxCell>
        <mxCell id="5gXdG1pFErPGXCqlOWgU-36" value="" style="endArrow=classic;html=1;rounded=0;exitX=1;exitY=0;exitDx=0;exitDy=0;" parent="1" edge="1">
          <mxGeometry width="50" height="50" relative="1" as="geometry">
            <mxPoint x="141.5" y="510" as="sourcePoint" />
            <mxPoint x="318.5" y="510" as="targetPoint" />
          </mxGeometry>
        </mxCell>
        <mxCell id="5gXdG1pFErPGXCqlOWgU-37" value="" style="endArrow=none;dashed=1;html=1;dashPattern=1 3;strokeWidth=2;rounded=0;entryX=1;entryY=0.25;entryDx=0;entryDy=0;" parent="1" edge="1">
          <mxGeometry width="50" height="50" relative="1" as="geometry">
            <mxPoint x="138.5" y="530" as="sourcePoint" />
            <mxPoint x="321.5" y="533" as="targetPoint" />
          </mxGeometry>
        </mxCell>
        <mxCell id="5gXdG1pFErPGXCqlOWgU-38" value="" style="endArrow=none;dashed=1;html=1;dashPattern=1 3;strokeWidth=2;rounded=0;" parent="1" edge="1">
          <mxGeometry width="50" height="50" relative="1" as="geometry">
            <mxPoint x="140" y="550" as="sourcePoint" />
            <mxPoint x="771.5" y="550" as="targetPoint" />
          </mxGeometry>
        </mxCell>
        <mxCell id="5gXdG1pFErPGXCqlOWgU-39" style="edgeStyle=orthogonalEdgeStyle;rounded=0;orthogonalLoop=1;jettySize=auto;html=1;exitX=0.5;exitY=1;exitDx=0;exitDy=0;entryX=0.5;entryY=0;entryDx=0;entryDy=0;" parent="1" source="5gXdG1pFErPGXCqlOWgU-31" target="5gXdG1pFErPGXCqlOWgU-31" edge="1">
          <mxGeometry relative="1" as="geometry" />
        </mxCell>
        <mxCell id="5gXdG1pFErPGXCqlOWgU-41" value="" style="endArrow=none;html=1;rounded=0;entryX=1;entryY=0.5;entryDx=0;entryDy=0;" parent="1" target="5gXdG1pFErPGXCqlOWgU-40" edge="1">
          <mxGeometry width="50" height="50" relative="1" as="geometry">
            <mxPoint x="138" y="640" as="sourcePoint" />
            <mxPoint x="138" y="473" as="targetPoint" />
          </mxGeometry>
        </mxCell>
        <mxCell id="5gXdG1pFErPGXCqlOWgU-40" value="" style="rounded=0;whiteSpace=wrap;html=1;rotation=90;" parent="1" vertex="1">
          <mxGeometry x="120" y="560" width="35" height="10" as="geometry" />
        </mxCell>
        <mxCell id="5gXdG1pFErPGXCqlOWgU-43" value="" style="endArrow=classic;html=1;rounded=0;exitX=1;exitY=0;exitDx=0;exitDy=0;" parent="1" edge="1">
          <mxGeometry width="50" height="50" relative="1" as="geometry">
            <mxPoint x="120" y="585" as="sourcePoint" />
            <mxPoint x="740" y="590" as="targetPoint" />
          </mxGeometry>
        </mxCell>
        <mxCell id="5gXdG1pFErPGXCqlOWgU-45" value="" style="endArrow=none;dashed=1;html=1;dashPattern=1 3;strokeWidth=2;rounded=0;" parent="1" edge="1">
          <mxGeometry width="50" height="50" relative="1" as="geometry">
            <mxPoint x="138.5" y="610" as="sourcePoint" />
            <mxPoint x="860" y="610" as="targetPoint" />
          </mxGeometry>
        </mxCell>
        <mxCell id="5gXdG1pFErPGXCqlOWgU-46" value="Списковая форма заказов" style="rounded=0;whiteSpace=wrap;html=1;" parent="1" vertex="1">
          <mxGeometry x="400" y="255" width="120" height="60" as="geometry" />
        </mxCell>
        <mxCell id="5gXdG1pFErPGXCqlOWgU-47" value="" style="endArrow=none;html=1;rounded=0;" parent="1" edge="1">
          <mxGeometry width="50" height="50" relative="1" as="geometry">
            <mxPoint x="460" y="640" as="sourcePoint" />
            <mxPoint x="459.5" y="315" as="targetPoint" />
          </mxGeometry>
        </mxCell>
        <mxCell id="5gXdG1pFErPGXCqlOWgU-48" value="" style="endArrow=classic;html=1;rounded=0;exitX=1;exitY=0;exitDx=0;exitDy=0;" parent="1" edge="1">
          <mxGeometry width="50" height="50" relative="1" as="geometry">
            <mxPoint x="460" y="470" as="sourcePoint" />
            <mxPoint x="620" y="470" as="targetPoint" />
          </mxGeometry>
        </mxCell>
        <mxCell id="5gXdG1pFErPGXCqlOWgU-49" value="Редактироватьt" style="edgeLabel;html=1;align=center;verticalAlign=middle;resizable=0;points=[];" parent="5gXdG1pFErPGXCqlOWgU-48" vertex="1" connectable="0">
          <mxGeometry x="-0.25" y="1" relative="1" as="geometry">
            <mxPoint as="offset" />
          </mxGeometry>
        </mxCell>
        <mxCell id="5gXdG1pFErPGXCqlOWgU-50" value="" style="endArrow=none;html=1;rounded=0;" parent="1" edge="1">
          <mxGeometry width="50" height="50" relative="1" as="geometry">
            <mxPoint x="620" y="640" as="sourcePoint" />
            <mxPoint x="620" y="310" as="targetPoint" />
          </mxGeometry>
        </mxCell>
        <mxCell id="5gXdG1pFErPGXCqlOWgU-51" value="форма редактирования заказа" style="rounded=0;whiteSpace=wrap;html=1;" parent="1" vertex="1">
          <mxGeometry x="550" y="255" width="120" height="60" as="geometry" />
        </mxCell>
        <mxCell id="5gXdG1pFErPGXCqlOWgU-52" value="" style="rounded=0;whiteSpace=wrap;html=1;rotation=90;" parent="1" vertex="1">
          <mxGeometry x="600" y="490" width="35" height="10" as="geometry" />
        </mxCell>
        <mxCell id="5gXdG1pFErPGXCqlOWgU-53" value="" style="endArrow=classic;html=1;rounded=0;" parent="1" edge="1">
          <mxGeometry width="50" height="50" relative="1" as="geometry">
            <mxPoint x="620" y="510" as="sourcePoint" />
            <mxPoint x="620" y="510" as="targetPoint" />
          </mxGeometry>
        </mxCell>
        <mxCell id="5gXdG1pFErPGXCqlOWgU-55" value="Заказ" style="rounded=0;whiteSpace=wrap;html=1;" parent="1" vertex="1">
          <mxGeometry x="680" y="465" width="120" height="60" as="geometry" />
        </mxCell>
        <mxCell id="5gXdG1pFErPGXCqlOWgU-56" value="" style="endArrow=classic;html=1;rounded=0;exitX=1;exitY=0.25;exitDx=0;exitDy=0;entryX=0;entryY=0.75;entryDx=0;entryDy=0;" parent="1" source="5gXdG1pFErPGXCqlOWgU-52" target="5gXdG1pFErPGXCqlOWgU-55" edge="1">
          <mxGeometry width="50" height="50" relative="1" as="geometry">
            <mxPoint x="635" y="515" as="sourcePoint" />
            <mxPoint x="685" y="465" as="targetPoint" />
          </mxGeometry>
        </mxCell>
        <mxCell id="5gXdG1pFErPGXCqlOWgU-57" value="" style="endArrow=none;html=1;rounded=0;exitX=0.5;exitY=1;exitDx=0;exitDy=0;" parent="1" source="5gXdG1pFErPGXCqlOWgU-55" edge="1">
          <mxGeometry width="50" height="50" relative="1" as="geometry">
            <mxPoint x="270" y="410" as="sourcePoint" />
            <mxPoint x="740" y="640" as="targetPoint" />
          </mxGeometry>
        </mxCell>
        <mxCell id="5gXdG1pFErPGXCqlOWgU-58" value="" style="rounded=0;whiteSpace=wrap;html=1;rotation=90;" parent="1" vertex="1">
          <mxGeometry x="731.25" y="531.25" width="17.5" height="10" as="geometry" />
        </mxCell>
        <mxCell id="5gXdG1pFErPGXCqlOWgU-59" value="" style="endArrow=classic;html=1;rounded=0;exitX=1;exitY=0.25;exitDx=0;exitDy=0;" parent="1" edge="1">
          <mxGeometry width="50" height="50" relative="1" as="geometry">
            <mxPoint x="731.25" y="588" as="sourcePoint" />
            <mxPoint x="800" y="588" as="targetPoint" />
          </mxGeometry>
        </mxCell>
        <mxCell id="5gXdG1pFErPGXCqlOWgU-60" value="Заказ" style="rounded=0;whiteSpace=wrap;html=1;" parent="1" vertex="1">
          <mxGeometry x="680" y="465" width="120" height="60" as="geometry" />
        </mxCell>
        <mxCell id="5gXdG1pFErPGXCqlOWgU-61" value="Позиция заказа" style="rounded=0;whiteSpace=wrap;html=1;" parent="1" vertex="1">
          <mxGeometry x="800" y="531.25" width="120" height="60" as="geometry" />
        </mxCell>
        <mxCell id="5gXdG1pFErPGXCqlOWgU-62" value="" style="endArrow=none;html=1;rounded=0;exitX=0.5;exitY=1;exitDx=0;exitDy=0;" parent="1" source="5gXdG1pFErPGXCqlOWgU-64" edge="1">
          <mxGeometry width="50" height="50" relative="1" as="geometry">
            <mxPoint x="270" y="410" as="sourcePoint" />
            <mxPoint x="860" y="630" as="targetPoint" />
          </mxGeometry>
        </mxCell>
        <mxCell id="5gXdG1pFErPGXCqlOWgU-65" value="" style="endArrow=none;html=1;rounded=0;exitX=0.5;exitY=1;exitDx=0;exitDy=0;" parent="1" source="5gXdG1pFErPGXCqlOWgU-61" target="5gXdG1pFErPGXCqlOWgU-64" edge="1">
          <mxGeometry width="50" height="50" relative="1" as="geometry">
            <mxPoint x="860" y="591" as="sourcePoint" />
            <mxPoint x="860" y="630" as="targetPoint" />
          </mxGeometry>
        </mxCell>
        <mxCell id="5gXdG1pFErPGXCqlOWgU-64" value="" style="rounded=0;whiteSpace=wrap;html=1;rotation=90;" parent="1" vertex="1">
          <mxGeometry x="851.25" y="591.25" width="17.5" height="10" as="geometry" />
        </mxCell>
      </root>
    </mxGraphModel>
  </diagram>
  <diagram id="aZqRdNf_gAbT1HWWv-SI" name="Страница — 2">
    <mxGraphModel dx="1426" dy="801" grid="1" gridSize="10" guides="1" tooltips="1" connect="1" arrows="1" fold="1" page="1" pageScale="1" pageWidth="827" pageHeight="1169" math="0" shadow="0">
      <root>
        <mxCell id="0" />
        <mxCell id="1" parent="0" />
        <mxCell id="z3-0VPiyre_o90YT2L-j-1" value="Учет Товаров" style="swimlane;whiteSpace=wrap;html=1;" vertex="1" parent="1">
          <mxGeometry x="180" y="40" width="530" height="460" as="geometry" />
        </mxCell>
        <mxCell id="z3-0VPiyre_o90YT2L-j-3" value="Авторизация" style="ellipse;whiteSpace=wrap;html=1;" vertex="1" parent="z3-0VPiyre_o90YT2L-j-1">
          <mxGeometry x="180" y="50" width="125" height="40" as="geometry" />
        </mxCell>
        <mxCell id="z3-0VPiyre_o90YT2L-j-8" value="Формирование отчета по остаткам" style="ellipse;whiteSpace=wrap;html=1;" vertex="1" parent="z3-0VPiyre_o90YT2L-j-1">
          <mxGeometry x="70" y="260" width="130" height="60" as="geometry" />
        </mxCell>
        <mxCell id="z3-0VPiyre_o90YT2L-j-10" value="Оформление поступление &lt;br&gt;товаров" style="ellipse;whiteSpace=wrap;html=1;" vertex="1" parent="z3-0VPiyre_o90YT2L-j-1">
          <mxGeometry x="90" y="120" width="126" height="50" as="geometry" />
        </mxCell>
        <mxCell id="z3-0VPiyre_o90YT2L-j-12" value="Оформление продажи товара" style="ellipse;whiteSpace=wrap;html=1;" vertex="1" parent="z3-0VPiyre_o90YT2L-j-1">
          <mxGeometry x="270" y="130" width="150" height="60" as="geometry" />
        </mxCell>
        <mxCell id="z3-0VPiyre_o90YT2L-j-13" value="" style="endArrow=classic;html=1;rounded=0;entryX=1;entryY=0.5;entryDx=0;entryDy=0;" edge="1" parent="z3-0VPiyre_o90YT2L-j-1" target="z3-0VPiyre_o90YT2L-j-12">
          <mxGeometry width="50" height="50" relative="1" as="geometry">
            <mxPoint x="580" y="140" as="sourcePoint" />
            <mxPoint x="500" y="170" as="targetPoint" />
          </mxGeometry>
        </mxCell>
        <mxCell id="z3-0VPiyre_o90YT2L-j-19" value="" style="endArrow=none;dashed=1;html=1;rounded=0;entryX=0.04;entryY=0.683;entryDx=0;entryDy=0;entryPerimeter=0;startArrow=classic;startFill=1;" edge="1" parent="z3-0VPiyre_o90YT2L-j-1" target="z3-0VPiyre_o90YT2L-j-12">
          <mxGeometry width="50" height="50" relative="1" as="geometry">
            <mxPoint x="180" y="270" as="sourcePoint" />
            <mxPoint x="230" y="220" as="targetPoint" />
          </mxGeometry>
        </mxCell>
        <mxCell id="z3-0VPiyre_o90YT2L-j-20" value="&amp;lt;extend&amp;gt;" style="edgeLabel;html=1;align=center;verticalAlign=middle;resizable=0;points=[];" vertex="1" connectable="0" parent="z3-0VPiyre_o90YT2L-j-19">
          <mxGeometry x="-0.1661" y="-5" relative="1" as="geometry">
            <mxPoint as="offset" />
          </mxGeometry>
        </mxCell>
        <mxCell id="z3-0VPiyre_o90YT2L-j-21" value="" style="endArrow=none;dashed=1;html=1;rounded=0;entryX=0.5;entryY=1;entryDx=0;entryDy=0;startArrow=classic;startFill=1;" edge="1" parent="z3-0VPiyre_o90YT2L-j-1" target="z3-0VPiyre_o90YT2L-j-10">
          <mxGeometry width="50" height="50" relative="1" as="geometry">
            <mxPoint x="130" y="260" as="sourcePoint" />
            <mxPoint x="180" y="210" as="targetPoint" />
          </mxGeometry>
        </mxCell>
        <mxCell id="z3-0VPiyre_o90YT2L-j-22" value="&amp;lt;extend&amp;gt;" style="edgeLabel;html=1;align=center;verticalAlign=middle;resizable=0;points=[];" vertex="1" connectable="0" parent="z3-0VPiyre_o90YT2L-j-21">
          <mxGeometry x="0.0338" y="3" relative="1" as="geometry">
            <mxPoint as="offset" />
          </mxGeometry>
        </mxCell>
        <mxCell id="z3-0VPiyre_o90YT2L-j-2" value="Менеджер по закупкам&lt;br&gt;" style="shape=umlActor;verticalLabelPosition=bottom;verticalAlign=top;html=1;outlineConnect=0;" vertex="1" parent="1">
          <mxGeometry x="70" y="140" width="30" height="60" as="geometry" />
        </mxCell>
        <mxCell id="z3-0VPiyre_o90YT2L-j-4" value="Кассир" style="shape=umlActor;verticalLabelPosition=bottom;verticalAlign=top;html=1;outlineConnect=0;" vertex="1" parent="1">
          <mxGeometry x="760" y="140" width="30" height="60" as="geometry" />
        </mxCell>
        <mxCell id="z3-0VPiyre_o90YT2L-j-5" value="" style="endArrow=none;html=1;rounded=0;entryX=0;entryY=0.5;entryDx=0;entryDy=0;" edge="1" parent="1" target="z3-0VPiyre_o90YT2L-j-3">
          <mxGeometry width="50" height="50" relative="1" as="geometry">
            <mxPoint x="100" y="170" as="sourcePoint" />
            <mxPoint x="150" y="120" as="targetPoint" />
          </mxGeometry>
        </mxCell>
        <mxCell id="z3-0VPiyre_o90YT2L-j-6" value="" style="endArrow=none;html=1;rounded=0;exitX=1;exitY=0.5;exitDx=0;exitDy=0;" edge="1" parent="1" source="z3-0VPiyre_o90YT2L-j-3">
          <mxGeometry width="50" height="50" relative="1" as="geometry">
            <mxPoint x="710" y="220" as="sourcePoint" />
            <mxPoint x="760" y="170" as="targetPoint" />
          </mxGeometry>
        </mxCell>
        <mxCell id="z3-0VPiyre_o90YT2L-j-9" value="" style="endArrow=classic;html=1;rounded=0;entryX=0;entryY=0.5;entryDx=0;entryDy=0;endFill=1;" edge="1" parent="1" target="z3-0VPiyre_o90YT2L-j-8">
          <mxGeometry width="50" height="50" relative="1" as="geometry">
            <mxPoint x="100" y="170" as="sourcePoint" />
            <mxPoint x="160" y="140" as="targetPoint" />
          </mxGeometry>
        </mxCell>
        <mxCell id="z3-0VPiyre_o90YT2L-j-11" value="" style="endArrow=classic;html=1;rounded=0;entryX=0;entryY=0.5;entryDx=0;entryDy=0;" edge="1" parent="1" target="z3-0VPiyre_o90YT2L-j-10">
          <mxGeometry width="50" height="50" relative="1" as="geometry">
            <mxPoint x="100" y="170" as="sourcePoint" />
            <mxPoint x="150" y="120" as="targetPoint" />
          </mxGeometry>
        </mxCell>
      </root>
    </mxGraphModel>
  </diagram>
</mxfile>
